<svg width="14.166992" height="17.000000" viewBox="0 0 14.167 17" fill="none" xmlns="http://www.w3.org/2000/svg" xmlns:xlink="http://www.w3.org/1999/xlink">
	<defs/>
	<path id="Vector" d="M6.58 16.79L0.2 10.41C0.07 10.28 0 10.1 0 9.91C0 9.72 0.07 9.54 0.2 9.41C0.34 9.28 0.52 9.2 0.7 9.2C0.89 9.2 1.07 9.28 1.2 9.41L6.37 14.58L6.37 0.7C6.37 0.52 6.44 0.34 6.58 0.2C6.71 0.07 6.89 0 7.08 0C7.27 0 7.45 0.07 7.58 0.2C7.71 0.34 7.79 0.52 7.79 0.7L7.79 14.58L12.95 9.41C13.09 9.28 13.27 9.2 13.45 9.2C13.64 9.2 13.82 9.28 13.95 9.41C14.09 9.54 14.16 9.72 14.16 9.91C14.16 10.1 14.09 10.28 13.95 10.41L7.58 16.79C7.51 16.85 7.44 16.91 7.35 16.94C7.26 16.98 7.17 17 7.08 17C6.99 17 6.89 16.98 6.81 16.94C6.72 16.91 6.64 16.85 6.58 16.79Z" fill="#E31E25" fill-opacity="1.000000" fill-rule="nonzero"/>
</svg>
