<svg width="24.000000" height="24.000000" viewBox="0 0 24 24" fill="none" xmlns="http://www.w3.org/2000/svg" xmlns:xlink="http://www.w3.org/1999/xlink">
	<rect id="ICONS_24*24/Arrow_top" width="24.000000" height="24.000000" transform="translate(0.000000 24.000000) rotate(-90.000000)" fill="#FFFFFF" fill-opacity="0"/>
	<path id="Vector" d="M12.08 4.2L18.45 10.58C18.59 10.71 18.66 10.89 18.66 11.08C18.66 11.27 18.59 11.45 18.45 11.58C18.32 11.71 18.14 11.79 17.95 11.79C17.76 11.79 17.58 11.71 17.45 11.58L12.29 6.41L12.29 20.29C12.29 20.47 12.21 20.65 12.08 20.79C11.95 20.92 11.77 21 11.58 21C11.39 21 11.21 20.92 11.08 20.79C10.94 20.65 10.87 20.47 10.87 20.29L10.87 6.41L5.7 11.58C5.57 11.71 5.39 11.79 5.2 11.79C5.02 11.79 4.84 11.71 4.7 11.58C4.57 11.45 4.49 11.27 4.49 11.08C4.49 10.89 4.57 10.71 4.7 10.58L11.08 4.2C11.14 4.14 11.22 4.08 11.31 4.05C11.39 4.01 11.49 4 11.58 4C11.67 4 11.76 4.01 11.85 4.05C11.94 4.08 12.01 4.14 12.08 4.2Z" fill="#5CB585" fill-opacity="1.000000" fill-rule="nonzero"/>
</svg>
